HIERARCHY
ROOT Hips
{
  OFFSET 3.13124 94.3669 -3.18751
  CHANNELS  6 Xposition Yposition Zposition Zrotation Xrotation Yrotation
  JOINT LeftUpLeg
  {
    OFFSET 8.64259 1.95398 -2.38835
    CHANNELS 3 Zrotation Xrotation Yrotation
    JOINT LeftLeg
    {
      OFFSET 43.7702 0 0
      CHANNELS 3 Zrotation Xrotation Yrotation
      JOINT LeftFoot
      {
        OFFSET 40.6238 0 0
        CHANNELS 3 Zrotation Xrotation Yrotation
        JOINT LeftToeBase
        {
          OFFSET 12.7242 0 0
          CHANNELS 3 Zrotation Xrotation Yrotation
          End Site
          {
            OFFSET 0 0 0
          }
        }
      }
    }
  }
  JOINT RightUpLeg
  {
    OFFSET -8.2249 1.95398 -2.59336
    CHANNELS 3 Zrotation Xrotation Yrotation
    JOINT RightLeg
    {
      OFFSET 43.5653 0 0
      CHANNELS 3 Zrotation Xrotation Yrotation
      JOINT RightFoot
      {
        OFFSET 40.6238 0 0
        CHANNELS 3 Zrotation Xrotation Yrotation
        JOINT RightToeBase
        {
          OFFSET 12.7242 0 0
          CHANNELS 3 Zrotation Xrotation Yrotation
          End Site
          {
            OFFSET 0 0 0
          }
        }
      }
    }
  }
  JOINT Spine
  {
    OFFSET 0.165834 0.87714 6.61349
    CHANNELS 3 Zrotation Xrotation Yrotation
    JOINT Spine1
    {
      OFFSET 7.38962 1.71661e-005 0
      CHANNELS 3 Zrotation Xrotation Yrotation
      JOINT Spine2
      {
        OFFSET 11.9445 1.14441e-005 0
        CHANNELS 3 Zrotation Xrotation Yrotation
        JOINT Spine3
        {
          OFFSET 14.7254 4.19617e-005 0
          CHANNELS 3 Zrotation Xrotation Yrotation
          JOINT Spine4
          {
            OFFSET 10.9679 0 0
            CHANNELS 3 Zrotation Xrotation Yrotation
            JOINT RightShoulder
            {
              OFFSET 2.46616 -1.6653 3.69651
              CHANNELS 3 Zrotation Xrotation Yrotation
              JOINT RightArm
              {
                OFFSET 13.0012 0 0
                CHANNELS 3 Zrotation Xrotation Yrotation
                JOINT RightForeArm
                {
                  OFFSET 28.7848 1.52588e-005 0
                  CHANNELS 3 Zrotation Xrotation Yrotation
                  JOINT RightHand
                  {
                    OFFSET 26.5688 1.52588e-005 0
                    CHANNELS 3 Zrotation Xrotation Yrotation
                    End Site
                    {
                      OFFSET 0 0 0
                    }
                  }
                }
              }
            }
            JOINT LeftShoulder
            {
              OFFSET 2.38034 -1.29275 -3.75231
              CHANNELS 3 Zrotation Xrotation Yrotation
              JOINT LeftArm
              {
                OFFSET 16.3182 6.10352e-005 0
                CHANNELS 3 Zrotation Xrotation Yrotation
                JOINT LeftForeArm
                {
                  OFFSET 27.0901 0 0
                  CHANNELS 3 Zrotation Xrotation Yrotation
                  JOINT LeftHand
                  {
                    OFFSET 24.5451 1.52588e-005 0
                    CHANNELS 3 Zrotation Xrotation Yrotation
                    End Site
                    {
                      OFFSET 0 0 0
                    }
                  }
                }
              }
            }
            JOINT Neck
            {
              OFFSET 5.0226 -0.0266342 0
              CHANNELS 3 Zrotation Xrotation Yrotation
              JOINT Head
              {
                OFFSET 6.69363 2.86102e-005 0
                CHANNELS 3 Zrotation Xrotation Yrotation
                End Site
                {
                  OFFSET 0 0 0
                }
              }
            }
          }
        }
      }
    }
  }
}
MOTION
Frames:	12
Frame Time:	0.0333333
58.2143 99.0871 -23.645 89.7727 -22.4189 87.5706 179.635 -0.0683533 87.8489 -6.75077 58.3945 3.8351 28.2622 1.967 0.585646 28.7808 4.1313e-006 -3.56204e-007 178.821 19.0825 78.4559 -34.9738 -8.0805 -0.652785 46.3372 8.63749 7.41814 28.7808 1.09155e-005 1.12861e-005 2.49877 6.10276 -90.8918 14.7539 4.42176 -2.97481 3.08661 4.28617 -3.16676 -19.4997 5.11383 -1.5053 0.512903 5.1138 -1.50531 99.5981 -27.3398 -87.5811 13.9212 22.1566 -55.1887 -4.17682 -21.3401 -4.96273 -60.068 20.1583 -39.7515 -60.3128 -42.5781 125.761 -4.68945 -17.2354 23.2614 2.61668 15.4799 -3.66789 59.4111 -8.36096 -18.1575 39.6145 8.91694 19.1767 -55.5565 1.92748 -6.31461 
57.6555 99.6314 -20.0658 90.6784 -6.8505 88.9264 -178.284 -0.699349 91.5353 -6.52606 67.9141 5.35401 27.2369 1.08903 -0.333336 28.7808 4.1313e-006 -3.56204e-007 173.18 6.32052 77.8083 -3.92817 -34.317 -1.93006 41.7825 7.9703 7.51164 28.7808 1.09155e-005 1.12861e-005 2.55263 6.08526 -90.9724 14.7782 4.57856 -2.81881 3.11184 4.45011 -3.01775 -19.481 5.21385 -1.30978 0.531674 5.21388 -1.30979 101.431 -31.6799 -83.5221 14.4904 21.6843 -55.5412 -4.00321 -16.9406 -5.00625 -65.6771 23.5482 -41.1788 -59.6415 -44.8819 126.05 -10.6091 -17.0145 17.9678 2.39041 6.1832 -3.43064 62.258 -10.4662 -20.7134 39.9341 6.82122 22.9473 -57.1245 0.788057 -11.8593 
57.5056 99.886 -16.2153 90.7956 9.73501 89.0973 -176.545 1.55231 94.557 -7.71544 73.929 7.09031 25.4665 0.418857 -1.13815 28.7808 4.1313e-006 -3.56204e-007 173.286 7.45709 78.5025 -5.20231 -56.3165 -3.77582 32.6776 8.35554 9.56732 28.7808 1.09155e-005 1.12861e-005 2.51923 6.07578 -90.7569 14.7789 4.64437 -2.20751 3.11406 4.54275 -2.41004 -19.4856 5.09548 -0.706559 0.527075 5.09546 -0.706576 103.304 -38.1873 -79.9556 15.6683 22.2786 -48.7293 -7.65668 -15.0418 -18.9807 -60.0136 23.0943 -44.2595 -58.5793 -45.0685 127.631 -14.6488 -16.7323 8.97538 2.13059 -7.35274 -3.15312 63.3079 -13.0341 -24.2374 42.4611 3.99888 22.0211 -59.0618 -1.0373 -13.3072 
57.6441 100.053 -12.1676 90.2078 27.4237 90.488 -175.62 5.5673 96.8955 -7.63214 73.9634 7.10163 23.0668 0.304173 -1.3851 28.7808 4.1313e-006 -3.56204e-007 174.956 7.51473 82.0434 -11.6676 -75.4188 -8.49387 20.2377 12.4013 17.1894 28.7808 1.09155e-005 1.12861e-005 2.63539 6.06857 -91.0766 14.7486 4.74309 -1.89768 3.08447 4.6542 -2.10501 -19.5186 5.09902 -0.380548 0.494063 5.09902 -0.380567 105.186 -41.0706 -76.7392 17.9738 23.1194 -35.0579 -17.9673 -15.8476 -46.538 -60.1826 17.1833 -34.8981 -57.4648 -47.2936 128.532 -15.7342 -16.6561 2.81189 2.12755 -7.52768 -3.14977 68.7154 -13.7405 -23.3657 44.3507 4.05544 22.6113 -60.1304 -1.27655 -13.7625 
58.5149 99.581 -8.08843 89.2041 46.3961 91.4311 -175.968 10.4458 97.0111 -5.85947 66.5646 5.05617 20.2697 -0.0495633 -1.97655 28.7808 4.1313e-006 -3.56204e-007 175.83 6.43409 83.4784 -11.0674 -59.4775 -4.25492 23.015 15.0201 19.6196 28.7808 1.09155e-005 1.12861e-005 2.67757 6.15 -91.2109 14.5464 4.69529 -1.54064 2.88273 4.62285 -1.74613 -19.7206 4.94114 -0.0551966 0.292067 4.94114 -0.0552166 106.661 -42.9672 -74.3576 19.3002 22.7414 -30.802 -19.4269 -12.7669 -55.4857 -62.2303 15.7194 -31.1949 -57.3607 -48.933 128.117 -16.7014 -16.5682 -7.42281 2.03443 -13.2886 -3.04741 75.7339 -10.7217 -17.4604 45.6194 6.14465 20.8506 -59.7231 -0.0152307 -11.2465 
59.2169 98.696 -4.26768 85.8261 66.7375 93.2255 -178.35 16.0113 93.0382 -4.20399 45.6819 2.65346 13.6414 1.5771 -0.157733 28.7808 4.1313e-006 -3.56204e-007 177.402 12.4085 84.0594 -26.0797 -33.1231 -2.03103 34.3149 9.72313 10.7418 28.7808 1.09155e-005 1.12861e-005 2.66079 6.21754 -91.1399 14.3693 4.52924 -0.785442 2.70593 4.49114 -0.984953 -19.8922 4.54946 0.618604 0.12042 4.54947 0.618596 108.423 -45.4821 -71.7031 18.7377 24.2692 -22.9361 -22.9917 -11.4361 -63.9418 -49.5933 14.9653 -37.2933 -59.4627 -48.6954 125.079 -19.1085 -15.6257 -11.1011 2.10323 -8.91284 -3.1222 68.9398 -14.5707 -24.4277 45.0418 8.09229 15.1759 -57.6383 2.1373 -5.68467 
60.1102 97.7127 -1.01744 33.8879 85.3366 146.387 -179.992 22.2986 90.8044 -3.75363 23.9377 1.3266 11.0646 4.17864 3.64481 28.7808 4.1313e-006 -3.56204e-007 178.206 14.0522 86.6784 -28.6056 -15.6241 -0.990588 38.4403 11.1631 11.1825 28.7808 1.09155e-005 1.12861e-005 2.86654 5.95547 -91.7819 14.8307 4.24834 -0.855013 3.16634 4.20659 -1.04148 -19.4245 4.30852 0.463741 0.588147 4.30852 0.463722 109.813 -45.2781 -69.3946 17.4978 25.7874 -19.3417 -25.3109 -12.6643 -64.3911 -46.5737 15.1383 -39.9527 -61.4343 -48.6799 122.128 -20.4483 -15.0823 -10.6851 2.39172 6.1725 -3.4316 71.6573 -16.7276 -26.4088 40.1475 11.0394 7.95945 -54.9023 5.67729 1.93217 
60.7831 97.1066 1.75631 -69.0638 73.0728 -108.478 179.351 25.5754 90.2405 -3.74793 8.36732 0.492053 16.1921 2.15386 0.7305 28.7808 4.1313e-006 -3.56204e-007 178.742 15.0743 88.8188 -28.7365 -4.28448 -0.256882 39.8145 13.4426 12.8795 28.7808 1.09155e-005 1.12861e-005 3.01217 5.68619 -92.1889 15.3324 4.03911 -0.934988 3.66723 3.99401 -1.11212 -18.9185 4.13305 0.324251 1.09418 4.13306 0.324234 111.681 -46.8208 -66.6352 15.558 27.3245 -19.4242 -24.5885 -14.2224 -60.5888 -46.1387 15.172 -40.3475 -62.2739 -46.7684 121.388 -23.0655 -13.8525 -14.476 2.44648 8.63078 -3.49011 66.7591 -16.0018 -27.3066 36.7527 12.7413 -1.06291 -53.0705 8.00076 10.4653 
61.3457 97.1608 4.60454 -75.7567 57.2704 -101.129 178.604 26.5463 88.452 -4.03263 -7.69983 -0.412256 17.3911 0.828517 -0.966252 28.7808 4.1313e-006 -3.56204e-007 179.077 17.493 88.4844 -30.5399 2.42013 0.116476 38.7984 14.2779 13.7865 28.7808 1.09155e-005 1.12861e-005 2.86669 5.59015 -91.687 15.5699 4.12389 -0.903014 3.90506 4.08012 -1.08386 -18.6826 4.20438 0.379868 1.33008 4.20436 0.379843 112.218 -46.9541 -65.802 13.429 28.5482 -20.8916 -22.1593 -15.9289 -53.9943 -51.0835 16.3742 -38.7452 -63.1768 -46.1231 120.188 -24.1987 -13.1804 -17.2283 2.45078 8.81812 -3.49461 63.4774 -15.2952 -27.6657 32.4878 14.7758 -10.0159 -51.4667 9.8731 19.7271 
61.8816 97.4612 7.38945 -79.2942 40.4448 -97.4734 178.243 25.2632 86.5275 -4.36672 -16.5493 -0.980194 17.1443 1.49034 -0.0809532 28.7808 4.1313e-006 -3.56204e-007 178.252 5.08456 85.9229 -5.90554 0.208276 0.00830811 34.8326 26.24 26.3115 28.7808 1.09155e-005 1.12861e-005 2.13951 5.65707 -90.5372 15.5626 3.72268 -0.981935 3.89667 3.676 -1.14602 -18.6829 3.8443 0.19067 1.32981 3.84427 0.190643 111.848 -45.7108 -66.1525 6.59653 33.6331 -7.54857 -49.0597 -29.2355 -67.1021 -43.8997 6.99313 -22.6104 -64.9414 -45.3574 117.614 -25.0853 -12.6346 -18.9333 2.38892 6.06336 -3.4295 60.645 -14.5737 -27.8239 30.0285 16.8894 -15.2677 -51.4899 11.3184 25.4477 
62.0154 97.4412 9.45229 -80.6627 24.2338 -96.016 178.077 24.1476 85.5072 -6.50387 -22.8238 -1.44205 21.5719 3.66636 2.71068 28.7808 4.1313e-006 -3.56204e-007 177.226 2.83962 83.6076 -3.84933 -0.886162 -0.078227 36.6506 26.3742 25.483 28.7808 1.09155e-005 1.12861e-005 1.64838 5.72047 -89.8021 15.4666 3.21053 -0.7537 3.79938 3.1744 -0.895632 -18.7682 3.28719 0.255523 1.24444 3.28718 0.25551 111.371 -45.1307 -66.8158 1.62855 35.373 -2.55845 -51.9581 -33.8596 -66.4126 -42.816 7.44235 -24.2402 -67.9641 -43.042 113.279 -25.8084 -12.3438 -18.0192 2.40861 6.98707 -3.44989 60.4461 -14.2561 -27.3715 29.8359 17.3734 -19.2549 -52.0454 11.5574 29.0923 
61.6844 97.0461 11.1877 -80.5231 10.0415 -92.9186 178.897 24.0246 87.1402 -8.41221 -24.6442 -1.58628 29.7156 5.69412 4.71737 28.7808 4.1313e-006 -3.56204e-007 177.213 1.65273 83.339 -3.84595 -1.10826 -0.0912932 39.0595 26.383 24.4344 28.7808 1.09155e-005 1.12861e-005 1.36146 5.73958 -89.5651 15.4397 2.70607 -0.837155 3.77115 2.6666 -0.955529 -18.7863 2.83249 0.0154723 1.22639 2.83245 0.0154571 111.724 -44.6344 -66.1364 0.125175 34.2647 -5.23187 -40.1915 -36.1323 -54.3664 -48.1724 10.1315 -27.8859 -70.1501 -40.2739 110.138 -27.1291 -11.4888 -20.2801 2.09221 -9.65213 -3.11113 43.9426 -13.8618 -35.918 32.1329 16.9777 -22.1543 -54.1925 11.2415 30.9311 
